<svg xmlns="http://www.w3.org/2000/svg" viewBox="1.36 -26.77 309.3 27.15">
  <path d="M14.93 0.38C22.43 0.38 26.51-4.03 27.37-9.5L22.21-9.5C21.34-6.22 18.66-4.07 14.78-4.07 9.61-4.07 6.33-8.63 6.33-13.57 6.33-18.78 9.99-22.28 14.7-22.28 19.19-22.28 21.53-19.76 22.28-16.63L27.37-16.63C26.62-23.11 21.53-26.77 14.37-26.77 6.33-26.77 1.36-20.7 1.36-13.2 1.36-5.73 5.92 0.38 14.93 0.38ZM38.5-11.39L49.7-11.39 49.7 0 54.79 0 54.79-26.39 49.7-26.39 49.7-16.21 38.5-16.21ZM31.07 0L36.16 0 36.16-26.39 31.07-26.39ZM72.39-26.77L72.39-21.94C77.37-21.94 81.14-19.08 81.14-13.2 81.14-7.31 77.37-4.41 72.39-4.41 67.57-4.41 63.83-7.31 63.83-13.2 63.83-13.2 58.71-13.2 58.71-13.2 58.71-4.49 64.78 0.38 72.39 0.38 80.2 0.38 86.23-4.11 86.23-13.2 86.23-21.87 80.2-26.77 72.39-26.77ZM102.67-26.77L102.67-21.94C107.65-21.94 111.42-19.08 111.42-13.2 111.42-7.31 107.65-4.41 102.67-4.41 97.84-4.41 94.11-7.31 94.11-13.2 94.11-13.2 88.98-13.2 88.98-13.2 88.98-4.49 95.05 0.38 102.67 0.38 110.48 0.38 116.51-4.11 116.51-13.2 116.51-21.87 110.48-26.77 102.67-26.77ZM128.42-22.66C131.85-22.66 134.23-20.74 134.23-17.72L139.32-17.72C139.32-23.64 135.13-26.77 128.39-26.77ZM118.24-19.68C118.24-10.07 134.23-13.54 134.23-7.31 134.23-5.17 132-3.77 128.84-3.77 125.18-3.77 123.03-5.66 123.03-8.71L117.87-8.71C117.87-2.45 122.28 0.38 128.95 0.38 135.06 0.38 139.32-2.68 139.32-7.31 139.32-16.89 123.18-13.99 123.18-19.61ZM162.24-21.45L162.24-26.39 142.71-26.39 142.71-21.45ZM162.24-10.86L162.24-15.53 142.71-15.53 142.71-10.86ZM142.71 0L162.24 0 162.24-4.98 142.71-4.98ZM190.75 0.38C198.25 0.38 202.32-4.03 203.19-9.5L198.03-9.5C197.16-6.22 194.48-4.07 190.6-4.07 185.43-4.07 182.15-8.63 182.15-13.57 182.15-18.78 185.81-22.28 190.52-22.28 195.01-22.28 197.35-19.76 198.1-16.63L203.19-16.63C202.44-23.11 197.35-26.77 190.18-26.77 182.15-26.77 177.18-20.7 177.18-13.2 177.18-5.73 181.74 0.38 190.75 0.38ZM219.37-26.77L219.37-21.94C224.34-21.94 228.11-19.08 228.11-13.2 228.11-7.31 224.34-4.41 219.37-4.41 214.54-4.41 210.81-7.31 210.81-13.2 210.81-13.2 205.68-13.2 205.68-13.2 205.68-4.49 211.75 0.38 219.37 0.38 227.17 0.38 233.2-4.11 233.2-13.2 233.2-21.87 227.17-26.77 219.37-26.77ZM242.29-7.88L242.29-26.39 237.16-26.39 237.16-7.88ZM237.16 0L256.36 0 256.36-4.98 237.16-4.98ZM271.14-26.77L271.14-21.94C276.11-21.94 279.88-19.08 279.88-13.2 279.88-7.31 276.11-4.41 271.14-4.41 266.31-4.41 262.58-7.31 262.58-13.2 262.58-13.2 257.45-13.2 257.45-13.2 257.45-4.49 263.52 0.38 271.14 0.38 278.94 0.38 284.97-4.11 284.97-13.2 284.97-21.87 278.94-26.77 271.14-26.77ZM288.93 0L294.02 0 294.02-9.31 299.94-9.31 304.88 0 310.61 0 304.47-10.18C307.67-11.76 309.1-15.23 309.1-18.06 309.1-23.38 305.79-26.39 299.83-26.39L288.93-26.39 288.93-21.94 299.26-21.94C302.66-21.94 304.32-20.55 304.32-17.95 304.32-15.16 302.36-13.54 299.3-13.54L288.93-13.54Z" fill="#ccc"/>
</svg>