<svg xmlns="http://www.w3.org/2000/svg" viewBox="2.16 -42.6 201.1 43.2">
  <path d="M23.76 0.6C35.7 0.6 42.18-6.42 43.56-15.12L35.34-15.12C33.96-9.9 29.7-6.48 23.52-6.48 15.3-6.48 10.08-13.74 10.08-21.6 10.08-29.88 15.9-35.46 23.4-35.46 30.54-35.46 34.26-31.44 35.46-26.46L43.56-26.46C42.36-36.78 34.26-42.6 22.86-42.6 10.08-42.6 2.16-32.94 2.16-21 2.16-9.12 9.42 0.6 23.76 0.6ZM61.26-18.12L79.08-18.12 79.08 0 87.18 0 87.18-42 79.08-42 79.08-25.8 61.26-25.8ZM49.44 0L57.54 0 57.54-42 49.44-42ZM125.94-34.14L125.94-42 94.86-42 94.86-34.14ZM125.94-17.28L125.94-24.72 94.86-24.72 94.86-17.28ZM94.86 0L125.94 0 125.94-7.92 94.86-7.92ZM148.14-36.06C153.6-36.06 157.38-33 157.38-28.2L165.48-28.2C165.48-37.62 158.82-42.6 148.08-42.6ZM131.94-31.32C131.94-16.02 157.38-21.54 157.38-11.64 157.38-8.22 153.84-6 148.8-6 142.98-6 139.56-9 139.56-13.86L131.34-13.86C131.34-3.9 138.36 0.6 148.98 0.6 158.7 0.6 165.48-4.26 165.48-11.64 165.48-26.88 139.8-22.26 139.8-31.2ZM185.88-36.06C191.34-36.06 195.12-33 195.12-28.2L203.22-28.2C203.22-37.62 196.56-42.6 185.82-42.6ZM169.68-31.32C169.68-16.02 195.12-21.54 195.12-11.64 195.12-8.22 191.58-6 186.54-6 180.72-6 177.3-9 177.3-13.86L169.08-13.86C169.08-3.9 176.1 0.6 186.72 0.6 196.44 0.6 203.22-4.26 203.22-11.64 203.22-26.88 177.54-22.26 177.54-31.2Z" fill="#ccc"/>
</svg>